<mxfile host="app.diagrams.net" modified="2022-06-01T03:43:35.031Z" agent="5.0 (Windows NT 10.0; Win64; x64) AppleWebKit/537.36 (KHTML, like Gecko) Chrome/102.0.5005.61 Safari/537.36" etag="zDWWtKJclMre7AqbwSNH" version="18.2.0" type="github">
  <diagram id="0QfWQ8TH2nPwjnLRyu7u" name="第 1 页">
    <mxGraphModel dx="460" dy="752" grid="1" gridSize="10" guides="1" tooltips="1" connect="1" arrows="1" fold="1" page="1" pageScale="1" pageWidth="827" pageHeight="1169" math="0" shadow="0">
      <root>
        <mxCell id="0" />
        <mxCell id="1" parent="0" />
        <mxCell id="kHs8V_kK4Uz0nNaEK5kw-2" style="edgeStyle=orthogonalEdgeStyle;rounded=0;orthogonalLoop=1;jettySize=auto;html=1;entryX=0;entryY=0.5;entryDx=0;entryDy=0;" edge="1" parent="1" source="kHs8V_kK4Uz0nNaEK5kw-1" target="kHs8V_kK4Uz0nNaEK5kw-3">
          <mxGeometry relative="1" as="geometry">
            <mxPoint x="270" y="210" as="targetPoint" />
          </mxGeometry>
        </mxCell>
        <mxCell id="kHs8V_kK4Uz0nNaEK5kw-18" style="edgeStyle=orthogonalEdgeStyle;rounded=0;orthogonalLoop=1;jettySize=auto;html=1;" edge="1" parent="1" source="kHs8V_kK4Uz0nNaEK5kw-1" target="kHs8V_kK4Uz0nNaEK5kw-14">
          <mxGeometry relative="1" as="geometry" />
        </mxCell>
        <mxCell id="kHs8V_kK4Uz0nNaEK5kw-1" value="Person构造函数&lt;br&gt;" style="rounded=0;whiteSpace=wrap;html=1;" vertex="1" parent="1">
          <mxGeometry x="70" y="180" width="120" height="60" as="geometry" />
        </mxCell>
        <mxCell id="kHs8V_kK4Uz0nNaEK5kw-10" style="edgeStyle=orthogonalEdgeStyle;rounded=0;orthogonalLoop=1;jettySize=auto;html=1;exitX=0;exitY=0.75;exitDx=0;exitDy=0;entryX=1;entryY=0.75;entryDx=0;entryDy=0;" edge="1" parent="1" source="kHs8V_kK4Uz0nNaEK5kw-3" target="kHs8V_kK4Uz0nNaEK5kw-1">
          <mxGeometry relative="1" as="geometry" />
        </mxCell>
        <mxCell id="kHs8V_kK4Uz0nNaEK5kw-3" value="Person.prototype&lt;br&gt;原型对象" style="rounded=0;whiteSpace=wrap;html=1;" vertex="1" parent="1">
          <mxGeometry x="294" y="180" width="120" height="60" as="geometry" />
        </mxCell>
        <mxCell id="kHs8V_kK4Uz0nNaEK5kw-9" value="prototype" style="text;html=1;resizable=0;autosize=1;align=center;verticalAlign=middle;points=[];fillColor=none;strokeColor=none;rounded=0;" vertex="1" parent="1">
          <mxGeometry x="195" y="180" width="70" height="20" as="geometry" />
        </mxCell>
        <mxCell id="kHs8V_kK4Uz0nNaEK5kw-11" value="constructor" style="text;html=1;resizable=0;autosize=1;align=center;verticalAlign=middle;points=[];fillColor=none;strokeColor=none;rounded=0;" vertex="1" parent="1">
          <mxGeometry x="195" y="230" width="70" height="20" as="geometry" />
        </mxCell>
        <mxCell id="kHs8V_kK4Uz0nNaEK5kw-16" style="edgeStyle=orthogonalEdgeStyle;rounded=0;orthogonalLoop=1;jettySize=auto;html=1;exitX=1;exitY=0;exitDx=0;exitDy=0;entryX=0.5;entryY=1;entryDx=0;entryDy=0;" edge="1" parent="1" source="kHs8V_kK4Uz0nNaEK5kw-14" target="kHs8V_kK4Uz0nNaEK5kw-3">
          <mxGeometry relative="1" as="geometry" />
        </mxCell>
        <mxCell id="kHs8V_kK4Uz0nNaEK5kw-14" value="实例对象&lt;br&gt;proto" style="ellipse;whiteSpace=wrap;html=1;" vertex="1" parent="1">
          <mxGeometry x="90" y="350" width="120" height="80" as="geometry" />
        </mxCell>
        <mxCell id="kHs8V_kK4Uz0nNaEK5kw-17" value="实例对象.__prtoto__" style="text;html=1;resizable=0;autosize=1;align=center;verticalAlign=middle;points=[];fillColor=none;strokeColor=none;rounded=0;" vertex="1" parent="1">
          <mxGeometry x="230" y="330" width="120" height="20" as="geometry" />
        </mxCell>
      </root>
    </mxGraphModel>
  </diagram>
</mxfile>
